<svg width="26" height="26" viewBox="0 0 26 26" fill="none" xmlns="http://www.w3.org/2000/svg">
<circle cx="13" cy="13" r="13" fill="#858585"/>
<path d="M7.96897 7.969C8.03864 7.89915 8.1214 7.84374 8.21252 7.80593C8.30363 7.76812 8.40132 7.74866 8.49997 7.74866C8.59862 7.74866 8.6963 7.76812 8.78742 7.80593C8.87854 7.84374 8.9613 7.89915 9.03097 7.969L13 11.9395L16.969 7.969C17.0387 7.89927 17.1215 7.84395 17.2126 7.80621C17.3037 7.76847 17.4014 7.74905 17.5 7.74905C17.5986 7.74905 17.6962 7.76847 17.7873 7.80621C17.8785 7.84395 17.9612 7.89927 18.031 7.969C18.1007 8.03873 18.156 8.12151 18.1938 8.21262C18.2315 8.30373 18.2509 8.40138 18.2509 8.5C18.2509 8.59861 18.2315 8.69626 18.1938 8.78737C18.156 8.87848 18.1007 8.96127 18.031 9.031L14.0605 13L18.031 16.969C18.1007 17.0387 18.156 17.1215 18.1938 17.2126C18.2315 17.3037 18.2509 17.4014 18.2509 17.5C18.2509 17.5986 18.2315 17.6963 18.1938 17.7874C18.156 17.8785 18.1007 17.9613 18.031 18.031C17.9612 18.1007 17.8785 18.156 17.7873 18.1938C17.6962 18.2315 17.5986 18.2509 17.5 18.2509C17.4014 18.2509 17.3037 18.2315 17.2126 18.1938C17.1215 18.156 17.0387 18.1007 16.969 18.031L13 14.0605L9.03097 18.031C8.96124 18.1007 8.87845 18.156 8.78734 18.1938C8.69623 18.2315 8.59858 18.2509 8.49997 18.2509C8.40135 18.2509 8.3037 18.2315 8.21259 18.1938C8.12148 18.156 8.0387 18.1007 7.96897 18.031C7.89924 17.9613 7.84392 17.8785 7.80618 17.7874C7.76844 17.6963 7.74902 17.5986 7.74902 17.5C7.74902 17.4014 7.76844 17.3037 7.80618 17.2126C7.84392 17.1215 7.89924 17.0387 7.96897 16.969L11.9395 13L7.96897 9.031C7.89912 8.96133 7.84371 8.87857 7.8059 8.78745C7.76809 8.69633 7.74863 8.59865 7.74863 8.5C7.74863 8.40135 7.76809 8.30366 7.8059 8.21255C7.84371 8.12143 7.89912 8.03867 7.96897 7.969Z" fill="white"/>
</svg>
