<svg width="12" height="12" viewBox="0 0 12 12" fill="none" xmlns="http://www.w3.org/2000/svg">
<path fill-rule="evenodd" clip-rule="evenodd" d="M8.22857 1.43743C8.35457 1.17171 8.53371 1.03886 8.76514 1.03886C8.97771 1.03886 9.14229 1.14 9.25629 1.34143C9.37114 1.54371 9.42857 1.81886 9.42857 2.16943C9.42857 2.54914 9.36171 2.85343 9.22714 3.084C9.09343 3.31371 8.91429 3.42857 8.68971 3.42857C8.48657 3.42857 8.33314 3.32143 8.22943 3.108H8.22257V3.37371H7.71429V0H8.22257V1.43743H8.22943H8.22857ZM8.21486 2.38029C8.20982 2.50827 8.24165 2.63501 8.30657 2.74543C8.36743 2.84229 8.44629 2.89029 8.54143 2.89029C8.658 2.89029 8.74714 2.82857 8.81057 2.70514C8.87486 2.58086 8.90743 2.40514 8.90743 2.178C8.90743 1.98943 8.87743 1.84371 8.81829 1.73743C8.76086 1.63114 8.67771 1.57714 8.56971 1.57714C8.46686 1.57714 8.382 1.63029 8.31514 1.73571C8.24338 1.86057 8.2086 2.00327 8.21486 2.14714V2.38029ZM1.81714 5.73857L0 3.91543L0.567429 3.348L1.42971 4.20514V2.91086C1.42904 2.75418 1.45927 2.59891 1.51868 2.45393C1.57809 2.30895 1.66552 2.17712 1.77594 2.06597C1.88637 1.95483 2.01764 1.86655 2.16223 1.80621C2.30682 1.74586 2.46189 1.71462 2.61857 1.71429H4.62857V2.49H2.61857C2.51003 2.49488 2.40761 2.54162 2.33281 2.62042C2.25801 2.69921 2.21665 2.80393 2.21743 2.91257L2.22343 4.19829L3.03686 3.38914L3.59914 3.95143L1.81629 5.73857H1.81714ZM6.30514 3.36857H6.85714V1.90286C6.85714 1.20686 6.58714 0.857143 6.048 0.857143C5.93229 0.857143 5.80371 0.877714 5.66229 0.919714C5.54501 0.950868 5.43296 0.999099 5.32971 1.06286V1.63286C5.53286 1.45886 5.74714 1.37229 5.97257 1.37229C6.19629 1.37229 6.30857 1.506 6.30857 1.77429L5.79429 1.86257C5.36057 1.93629 5.14286 2.21057 5.14286 2.68629C5.14286 2.91171 5.19514 3.09171 5.29971 3.22714C5.35086 3.29291 5.41699 3.34551 5.49258 3.38055C5.56817 3.41558 5.65104 3.43205 5.73429 3.42857C5.98286 3.42857 6.17057 3.29143 6.29743 3.01714H6.30514V3.36857ZM6.30857 2.20714V2.37257C6.31355 2.50476 6.27763 2.63526 6.20571 2.74629C6.17699 2.7913 6.1373 2.82828 6.09038 2.85376C6.04345 2.87925 5.99083 2.89241 5.93743 2.892C5.9019 2.89347 5.86649 2.88692 5.83384 2.87282C5.8012 2.85872 5.77215 2.83744 5.74886 2.81057C5.70166 2.75001 5.67737 2.67472 5.68029 2.598C5.68029 2.40771 5.77457 2.29714 5.96486 2.26457L6.30771 2.20714H6.30857ZM4.28571 10.2257H3.73371V9.87429H3.726C3.59914 10.1486 3.41143 10.2857 3.16286 10.2857C3.07961 10.2892 2.99674 10.2727 2.92115 10.2377C2.84556 10.2027 2.77943 10.1501 2.72829 10.0843C2.62371 9.94886 2.57143 9.76886 2.57143 9.54429C2.57143 9.06771 2.78914 8.79343 3.22286 8.71972L3.73714 8.63143C3.73714 8.36314 3.62571 8.22857 3.40114 8.22857C3.17571 8.22857 2.96143 8.316 2.75829 8.49V7.92C2.83971 7.866 2.95029 7.818 3.09086 7.77686C3.23229 7.73486 3.36086 7.71429 3.47657 7.71429C4.01657 7.71429 4.28571 8.06314 4.28571 8.76V10.2257ZM3.73714 9.22971V9.06429L3.39429 9.12257C3.204 9.15429 3.10886 9.26486 3.10886 9.45514C3.10886 9.54086 3.132 9.612 3.17743 9.66772C3.20072 9.69459 3.22977 9.71586 3.26242 9.72996C3.29506 9.74406 3.33047 9.75062 3.366 9.74914C3.41925 9.7494 3.4717 9.73618 3.51847 9.7107C3.56523 9.68522 3.60478 9.64832 3.63343 9.60343C3.702 9.504 3.73629 9.38057 3.73629 9.22971H3.73714ZM6.22457 10.2857C6.49971 10.2857 6.71143 10.236 6.85714 10.1374V9.52886C6.72382 9.63944 6.55716 9.70194 6.384 9.70629C6.30324 9.71025 6.22265 9.69571 6.14837 9.66377C6.0741 9.63183 6.0081 9.58334 5.95543 9.522C5.85257 9.39771 5.80029 9.22629 5.80029 9.00943C5.80029 8.78657 5.85429 8.61171 5.96229 8.48486C6.01676 8.42164 6.08487 8.37159 6.16147 8.33848C6.23808 8.30537 6.3212 8.29007 6.40457 8.29371C6.57086 8.29371 6.72171 8.35286 6.85714 8.47114V7.82914C6.74657 7.752 6.56743 7.71429 6.32057 7.71429C5.96314 7.71429 5.67686 7.83429 5.46257 8.076C5.24914 8.316 5.14286 8.64343 5.14286 9.06C5.14286 9.42 5.24229 9.71486 5.442 9.94286C5.64086 10.1717 5.90229 10.2857 6.22457 10.2857ZM0 6.85714L0.857143 6H8.57143L9.42857 6.85714V11.1429L8.57143 12H0.857143L0 11.1429V6.85714ZM0.857143 6.85714V11.1429H8.57143V6.85714H0.857143ZM3.42857 5.14286L4.28571 4.28571H10.2857L11.1429 5.14286V9.42857L10.2857 10.2857V5.14286H3.42857Z" fill="#7C7C7C"/>
</svg>
