<svg width="8" height="12" viewBox="0 0 8 12" fill="none" xmlns="http://www.w3.org/2000/svg">
<path fill-rule="evenodd" clip-rule="evenodd" d="M0.189429 2.34771L2.12743 4.29257L4.02857 2.38629L3.42857 1.78629L2.56114 2.64943L2.55429 1.278C2.55351 1.162 2.59773 1.05022 2.67765 0.966141C2.75757 0.882065 2.86697 0.832242 2.98286 0.827143H4.28571V0H2.98286C2.81568 0.000223746 2.65019 0.0334449 2.49588 0.0977585C2.34156 0.162072 2.20147 0.256213 2.08361 0.374784C1.96576 0.493355 1.87247 0.634022 1.80909 0.788722C1.74571 0.943421 1.7135 1.10911 1.71429 1.27629V2.65714L0.794571 1.74257L0.189429 2.34771ZM5.90657 3.88543H5.91514C6.072 4.152 6.30171 4.28571 6.606 4.28571C6.94286 4.28571 7.21114 4.14171 7.41171 3.85457C7.614 3.56743 7.71429 3.186 7.71429 2.712C7.71429 2.274 7.62857 1.92943 7.45629 1.67743C7.284 1.42457 7.038 1.29857 6.71914 1.29857C6.372 1.29857 6.10371 1.46486 5.91514 1.79657H5.90657V0H5.14286V4.21629H5.90571V3.88543H5.90657ZM5.89371 2.976V2.68457C5.89371 2.472 5.94343 2.30057 6.04371 2.16943C6.08664 2.1082 6.14376 2.05829 6.21019 2.02395C6.27661 1.98962 6.35037 1.97189 6.42514 1.97229C6.49955 1.96946 6.57336 1.98647 6.63903 2.02156C6.7047 2.05665 6.75986 2.10857 6.79886 2.172C6.888 2.304 6.93171 2.48743 6.93171 2.72314C6.93171 3.006 6.88371 3.22629 6.78686 3.38143C6.74718 3.45306 6.68868 3.51249 6.61768 3.55328C6.54667 3.59407 6.46587 3.61467 6.384 3.61286C6.315 3.61363 6.24685 3.59756 6.18546 3.56605C6.12407 3.53453 6.0713 3.48852 6.03171 3.432C5.9364 3.29956 5.88812 3.13905 5.89457 2.976H5.89371ZM5.14286 10.0877C4.92343 10.2197 4.60714 10.2857 4.19314 10.2857C3.71057 10.2857 3.31886 10.1331 3.01971 9.82886C2.72057 9.52457 2.57143 9.132 2.57143 8.65114C2.57143 8.09571 2.73086 7.65857 3.05143 7.33971C3.372 7.01743 3.80143 6.85714 4.33714 6.85714C4.70829 6.85714 4.97657 6.90857 5.14286 7.01057V7.866C4.95023 7.71193 4.71066 7.62845 4.464 7.62943C4.18543 7.62943 3.96429 7.71514 3.80057 7.88486C3.63771 8.05286 3.558 8.286 3.558 8.58429C3.558 8.874 3.63514 9.10114 3.79114 9.26743C3.94714 9.43114 4.16057 9.51343 4.43314 9.51343C4.67486 9.51343 4.91143 9.43457 5.14286 9.27686V10.0877ZM0.857143 5.14286L0 6V11.1429L0.857143 12H6.85714L7.71429 11.1429V6L6.85714 5.14286H0.857143ZM0.857143 6H6.85714V11.1429H0.857143V6Z" fill="#7C7C7C"/>
</svg>
